<svg id="Capa_1" enable-background="new 0 0 497 497" height="512" viewBox="0 0 497 497" width="512" xmlns="http://www.w3.org/2000/svg"><g><path d="m177.405 443.641 20.312 26.679-20.312 26.68h-67.414c0-20.978 3.112-38.615 8-53.359l35.863-20.06z" fill="#ffdcce"/><path d="m147.633 470.788c0-14.037 2.725-29.893 7.684-45.961l-1.463-1.246-35.863 20.06c-4.888 14.744-8 32.38-8 53.359h40.905c-2.127-8.398-3.263-17.175-3.263-26.212z" fill="#ffcabd"/><path d="m177.405 374.332 25.728 34.655-25.728 34.655h-59.414c17.856-53.898 59.414-69.31 59.414-69.31z" fill="#ffb5ec"/><path d="m319.595 443.641-20.312 26.679 20.312 26.68h67.414c0-20.978-3.112-38.615-8-53.359l-35.863-20.06z" fill="#ffdcce"/><path d="m319.595 374.332-25.728 34.655 25.728 34.655h59.414c-17.856-53.898-59.414-69.31-59.414-69.31z" fill="#ffb5ec"/><path d="m177.405 374.332h142.19v122.668h-142.19z" fill="#9ae0eb"/><circle cx="248.5" cy="385.485" fill="#ffb5ec" r="40.244"/><path d="m341.086 88.347c1.656-6.67 2.566-13.797 2.566-21.213 0-37.077-22.417-67.134-50.07-67.134-19.836 0-36.976 15.468-45.082 37.897-8.106-22.429-25.246-37.897-45.082-37.897-27.653 0-50.07 30.057-50.07 67.134 0 7.416.91 14.543 2.566 21.213-51.251 29.172-85.469 81.832-85.469 141.953 0 91.767 79.718 156.183 178.055 156.183s178.055-64.416 178.055-156.183c0-60.121-34.218-112.781-85.469-141.953z" fill="#b08bd7"/><path d="m137.244 169.835c23.831-27.063 64.801-40.849 111.256-40.849s87.425 13.786 111.256 40.849v43.041h-222.512z" fill="#e7886e"/><path d="m227.347 129.978c-37.585 3.6-69.964 16.986-90.103 39.856v43.041h12.971c9.076-37.155 38.254-67.815 77.132-82.897z" fill="#e27858"/><path d="m381.662 230.296c0 39.024-19.821 64.172-36.45 78.407-24.779 21.208-59.135 32.889-96.712 32.889s-71.933-11.681-96.712-32.889c-16.629-14.235-36.45-39.383-36.45-78.407 0-24.56 8.06-44.75 21.906-60.461 7.182 14.684 22.275 24.799 39.732 24.799 14.704 0 27.722-7.192 35.762-18.235 8.03 11.043 21.058 18.235 35.762 18.235s27.732-7.192 35.762-18.235c8.04 11.043 21.058 18.235 35.762 18.235 17.457 0 32.55-10.115 39.732-24.799 13.846 15.711 21.906 35.901 21.906 60.461z" fill="#ffdcce"/><g><g><path d="m177.402 258.986c-4.142 0-7.5-3.357-7.5-7.5v-13.662c0-4.143 3.358-7.5 7.5-7.5s7.5 3.357 7.5 7.5v13.662c0 4.142-3.358 7.5-7.5 7.5z" fill="#423e4f"/></g><g><path d="m319.598 258.986c-4.142 0-7.5-3.357-7.5-7.5v-13.662c0-4.143 3.358-7.5 7.5-7.5s7.5 3.357 7.5 7.5v13.662c0 4.142-3.358 7.5-7.5 7.5z" fill="#423e4f"/></g><g><path d="m248.5 267.118c-9.352 0-18.245-4.051-24.399-11.113-2.721-3.122-2.396-7.86.728-10.581 3.123-2.721 7.861-2.396 10.582.728 3.304 3.792 8.075 5.967 13.09 5.967 5.014 0 9.786-2.175 13.09-5.968 2.721-3.121 7.458-3.448 10.582-.727 3.123 2.721 3.448 7.459.727 10.582-6.155 7.062-15.048 11.112-24.4 11.112z" fill="#423e4f"/></g></g><g><g><path d="m197.717 69.507c-4.142 0-7.5-3.357-7.5-7.5v-12.751c0-4.143 3.358-7.5 7.5-7.5s7.5 3.357 7.5 7.5v12.751c0 4.143-3.358 7.5-7.5 7.5z" fill="#423e4f"/></g><g><path d="m299.283 69.507c-4.142 0-7.5-3.357-7.5-7.5v-12.751c0-4.143 3.358-7.5 7.5-7.5s7.5 3.357 7.5 7.5v12.751c0 4.143-3.358 7.5-7.5 7.5z" fill="#423e4f"/></g><g><path d="m248.5 97.485c-9.352 0-18.244-4.05-24.399-11.111-2.721-3.123-2.396-7.86.726-10.582 3.123-2.721 7.86-2.396 10.582.727 3.305 3.792 8.076 5.967 13.091 5.967s9.786-2.175 13.091-5.967c2.721-3.121 7.459-3.447 10.582-.727 3.123 2.722 3.448 7.46.726 10.582-6.155 7.061-15.048 11.111-24.399 11.111z" fill="#423e4f"/></g></g><path d="m147.244 237.514c0-16.692 3.994-32.569 11.178-46.953-9.221-4.269-16.723-11.617-21.178-20.727-13.846 15.711-21.906 35.902-21.906 60.461 0 39.024 19.821 64.172 36.45 78.407 16.237 13.897 36.587 23.703 59.26 28.812-38.298-20.748-63.804-57.773-63.804-100z" fill="#ffcabd"/><path d="m177.96 375.079-.555-.748s-41.558 15.412-59.414 69.31h32.53c4.526-22.711 14.17-47.2 27.439-68.562z" fill="#ffa2e7"/></g></svg>