<svg id="Capa_1" enable-background="new 0 0 497 497" height="512" viewBox="0 0 497 497" width="512" xmlns="http://www.w3.org/2000/svg"><g><path d="m247.201 382.234 27.387 56.437-27.387 58.329h-129c0-89.856 59.024-130.064 59.024-130.064h63.759z" fill="#ff889e"/><path d="m247.201 497v-114.766l-6.217-15.298h78.791s59.024 40.208 59.024 130.064z" fill="#ff748f"/><path d="m39.487 209.013c0-115.25 93.763-209.013 209.013-209.013s209.013 93.763 209.013 209.013z" fill="#64d1e1"/><path d="m100.19 205.896c0-100.521 50.891-184.613 154.087-205.813-1.92-.052-3.845-.083-5.777-.083-115.25 0-209.013 93.763-209.013 209.013h60.743c-.015-1.038-.04-2.075-.04-3.117z" fill="#3ccadd"/><g><circle cx="421.722" cy="219.239" fill="#ffbe9c" r="48.912"/></g><path d="m399.293 123.723c-7.627-13.452-23.758-19.644-38.483-14.918-31.777 10.197-70.511 16.184-112.31 16.184-.854 0-1.698-.018-2.549-.023l-11.436 5.225-5.096-5.639c-34.481-1.525-66.351-7.122-93.231-15.748-14.711-4.721-30.839 1.449-38.463 14.887-14.147 24.939-22.288 53.731-22.445 84.415-.149 29.015 6.947 56.457 19.567 80.616l8.741 5.266-1.207 7.764c30.584 47.928 84.061 80.034 144.825 80.478 96.262.703 174.516-77.118 174.516-173.217 0-31.01-8.154-60.113-22.429-85.29z" fill="#ffd3bc"/><path d="m100.19 205.896c0-35.339 6.301-68.641 18.941-97.902-8.813 1.924-16.718 7.434-21.406 15.697-8.193 14.443-14.355 30.184-18.135 46.831-1.421-.125-2.858-.195-4.312-.195-27.014 0-48.912 21.899-48.912 48.913s21.899 48.913 48.912 48.913c3.467 0 6.842-.383 10.104-1.071 2.676 7.456 5.834 14.689 9.466 21.642l8.741 5.266-1.207 7.764c16.783 26.3 40.469 47.818 68.459 61.972-43.036-38.651-70.651-95.03-70.651-157.83z" fill="#ffbe9c"/><path d="m229.419 124.552c-6.491 13.022-15.603 29.864-27.382 48.295-22.116 34.606-58.049 81.443-107.19 115.875 2.329 4.458 4.839 8.807 7.534 13.03 51.799-35.984 89.438-85.005 112.492-121.134 14.093-22.085 24.378-41.712 31.079-55.651-5.572-.033-11.084-.174-16.533-.415z" fill="#4f4c5f"/><path d="m340.881 450.318v12.363l-27.922 17.159-27.922-17.159v-12.363c0-8.682 7.035-15.728 15.728-15.728h24.389c8.692.001 15.727 7.047 15.727 15.728z" fill="#9ae0eb"/><path d="m285.037 462.682h55.844v34.318h-55.844z" fill="#64d1e1"/><path d="m153.521 450.318v12.363l27.922 17.159 27.922-17.159v-12.363c0-8.682-7.035-15.728-15.728-15.728h-24.389c-8.691.001-15.727 7.047-15.727 15.728z" fill="#9ae0eb"/><path d="m153.521 462.682h55.844v34.318h-55.844z" fill="#64d1e1"/><path d="m185.457 174.234h-55.611c-12.754 0-22.63 11.165-21.074 23.823l3.027 24.619c2.847 23.16 22.518 40.562 45.853 40.562 23.335 0 43.006-17.401 45.853-40.562l3.026-24.619c1.556-12.659-8.32-23.823-21.074-23.823z" fill="#5c586f"/><ellipse cx="356.72" cy="244.399" fill="#ff9db0" rx="39.931" ry="31.799"/><g><g><path d="m333.448 221.288c-4.142 0-7.5-3.357-7.5-7.5v-16.323c0-4.143 3.358-7.5 7.5-7.5s7.5 3.357 7.5 7.5v16.323c0 4.143-3.358 7.5-7.5 7.5z" fill="#423e4f"/></g><g><path d="m248.5 257.593c-10.751 0-20.976-4.656-28.05-12.776-2.721-3.122-2.396-7.86.727-10.581 3.123-2.722 7.86-2.396 10.582.728 4.226 4.849 10.328 7.63 16.742 7.63s12.516-2.781 16.742-7.63c2.721-3.124 7.458-3.448 10.582-.728 3.123 2.721 3.448 7.459.727 10.581-7.076 8.12-17.301 12.776-28.052 12.776z" fill="#423e4f"/></g></g></g></svg>