<svg id="Capa_1" enable-background="new 0 0 497 497" height="512" viewBox="0 0 497 497" width="512" xmlns="http://www.w3.org/2000/svg"><g><path d="m434.537 133.646-186.037 40.956-197.056-40.956c6.287-31.612 16.12-50.601 22.078-66.702l174.978-22.989 138.145 22.989c20.155 18.641 36.544 41.307 47.892 66.702z" fill="#ffb5ec"/><path d="m452.131 216.428v86.697c0 79.922-64.779 144.711-144.701 144.711h-117.86c-79.912 0-144.701-64.789-144.701-144.711v-86.697c0-5.41.209-10.78.638-16.08l202.993-25.746 202.994 25.746c.428 5.3.637 10.67.637 16.08z" fill="#e7886e"/><path d="m375.447 497c0-87.538-57.504-126.714-57.504-126.714h-138.886s-57.504 39.177-57.504 126.714z" fill="#50e1cd"/><path d="m205.572 448.587c-8.253 0-14.944-6.691-14.944-14.944 0-54.14 25.03-86.955 26.096-88.326 5.066-6.516 14.455-7.69 20.971-2.625 6.495 5.05 7.683 14.396 2.673 20.909-.18.24-5.126 6.891-9.986 18.704-4.5 10.938-9.864 28.723-9.864 51.338-.002 8.253-6.693 14.944-14.946 14.944z" fill="#fff"/><path d="m291.428 448.587c8.253 0 14.944-6.691 14.944-14.944 0-54.14-25.03-86.955-26.096-88.326-5.066-6.516-14.455-7.69-20.971-2.625-6.495 5.05-7.683 14.396-2.673 20.909.18.24 5.126 6.891 9.986 18.704 4.5 10.938 9.864 28.723 9.864 51.338.002 8.253 6.693 14.944 14.946 14.944z" fill="#fff"/><path d="m80.501 200.347c-.5 5.292-.767 10.653-.767 16.076 0 93.207 75.559 168.766 168.766 168.766s168.766-75.559 168.766-168.766c0-5.423-.266-10.784-.767-16.076l-167.999-25.745z" fill="#ffd3bc"/><path d="m161.821 55.344-88.299 11.6c-5.958 16.1-15.791 35.089-22.078 66.701l66.867 13.897c7.08-38.359 21.517-68.993 43.51-92.198z" fill="#ffa2e7"/><path d="m272.202 14.161c-17.037-1.983-34.053-4.194-50.91-7.333-18.182-3.387-37.65-5.848-56.41-6.586-7.711-.319-15.303-.329-22.636 0-31.264 1.405-58.193 23.473-64.868 54.059-.907 4.135-2.232 8.279-3.856 12.643h313.123c-30.865-28.543-70.547-47.672-114.443-52.783z" fill="#fbe29f"/><path d="m113.168 208.872c0-4.602.076-9.121.222-13.565l-32.888 5.04c-.5 5.292-.767 10.653-.767 16.076 0 77.466 52.197 142.735 123.336 162.572-54.424-37.895-89.903-99.97-89.903-170.123z" fill="#ffbe9c"/><path d="m451.494 200.347h-405.988c0-27.328 2.411-48.997 5.938-66.702h383.093c9.226 20.654 15.114 43.12 16.957 66.702z" fill="#b08bd7"/><g><path d="m167.198 497v-41.758c0-4.143 3.358-7.5 7.5-7.5s7.5 3.357 7.5 7.5v41.758z" fill="#00d1b3"/></g><g><path d="m314.802 497v-41.758c0-4.143 3.358-7.5 7.5-7.5s7.5 3.357 7.5 7.5v41.758z" fill="#00d1b3"/></g><path d="m276.338 103.89h-55.676c-12.724 0-23.038 10.314-23.038 23.038v13.435c0 12.723 10.314 23.038 23.038 23.038h55.676c12.724 0 23.038-10.314 23.038-23.038v-13.435c0-12.723-10.315-23.038-23.038-23.038z" fill="#fbe29f"/><g><g><path d="m161.551 267.376c-4.142 0-7.5-3.357-7.5-7.5v-16.708c0-4.143 3.358-7.5 7.5-7.5s7.5 3.357 7.5 7.5v16.708c0 4.142-3.358 7.5-7.5 7.5z" fill="#423e4f"/></g><g><path d="m335.448 267.376c-4.142 0-7.5-3.357-7.5-7.5v-16.708c0-4.143 3.358-7.5 7.5-7.5s7.5 3.357 7.5 7.5v16.708c0 4.142-3.358 7.5-7.5 7.5z" fill="#423e4f"/></g><g><path d="m248.5 277.321c-10.954 0-21.37-4.744-28.578-13.017-2.721-3.122-2.396-7.86.727-10.581 3.123-2.722 7.86-2.396 10.582.728 4.359 5.001 10.653 7.87 17.27 7.87s12.911-2.869 17.269-7.87c2.721-3.125 7.458-3.449 10.582-.728 3.123 2.721 3.448 7.459.727 10.581-7.209 8.273-17.625 13.017-28.579 13.017z" fill="#423e4f"/></g></g><path d="m121.293 133.646h-69.849c-3.527 17.704-5.938 39.374-5.938 66.702h67.757c.497-24.561 3.163-46.778 8.03-66.702z" fill="#a47cd1"/><path d="m241.252 10.141c-6.672-.99-13.329-2.078-19.961-3.312-18.182-3.387-37.65-5.848-56.41-6.585-7.711-.319-15.303-.329-22.636 0-31.264 1.405-58.193 23.472-64.868 54.059-.907 4.135-2.232 8.279-3.856 12.643h78.411c21.022-27.428 50.706-46.247 89.32-56.805z" fill="#fccb88"/></g></svg>