<svg id="Capa_1" enable-background="new 0 0 497 497" height="512" viewBox="0 0 497 497" width="512" xmlns="http://www.w3.org/2000/svg"><g><path d="m387.261 497c0-80.84-58.213-109.88-58.213-109.88h-153.2s-58.213 29.04-58.213 109.88z" fill="#50e1cd"/><path d="m252.448 374.107c-16.622 8.357-28.034 25.554-28.034 45.427 0 14.834 6.358 28.177 16.496 37.466 6.567 6.017 16.509 6.017 23.076 0 10.137-9.289 16.496-22.632 16.496-37.466 0-19.873-11.412-37.07-28.034-45.427z" fill="#bc9bdd"/><g><path d="m252.448 439.874c-4.142 0-7.5-3.357-7.5-7.5v-41.04c0-4.143 3.358-7.5 7.5-7.5s7.5 3.357 7.5 7.5v41.04c0 4.142-3.358 7.5-7.5 7.5z" fill="#a47cd1"/></g><path d="m79.104 174.167c-10.767 23.822-16.764 50.243-16.764 78.038h380.216c0-27.796-5.998-54.216-16.764-78.038l-173.344-24.505z" fill="#5c586f"/><path d="m138.113 40.908c-6.519-14.229-19.559-23.401-33.954-25.605-6.216-.952-12.463 1.91-15.801 7.239-7.732 12.34-9.303 28.206-2.784 42.435 7.968 17.394 25.683 27.231 43.703 26.021 12.685-12.857 16.805-32.696 8.836-50.09z" fill="#00d1b3"/><circle cx="407.571" cy="262.2" fill="#ffbe9c" r="42.794"/><g><path d="m139.844 492.317c0-47.226 27.262-87.76 66.156-105.197h-30.152s-58.213 29.04-58.213 109.88h22.307c-.06-1.554-.098-3.114-.098-4.683z" fill="#00d1b3"/></g><path d="m338.884 174.167-86.437-24.505-86.436 24.505h-47.647c-13.371 22.925-21.039 49.584-21.039 78.038 0 85.672 69.451 155.123 155.123 155.123s155.123-69.451 155.123-155.123c0-28.453-7.668-55.113-21.039-78.038z" fill="#ffd3bc"/><path d="m383.306 90.028c.692-4.156 1.07-8.419 1.07-12.772 0-42.667-34.589-77.256-77.257-77.256-21.356 0-40.687 8.666-54.671 22.672l-6.978 95.708h119.307z" fill="#986acb"/><path d="m109.58 64.083c-18.126-9.684-39.216-8.254-55.475 1.909-4.783 2.989-7.636 8.33-7.462 13.967.591 19.165 11.125 37.492 29.251 47.176 20.874 11.152 45.68 7.564 62.512-7.126 2.855-22.159-7.951-44.774-28.826-55.926z" fill="#50e1cd"/><g><g><path d="m160.354 497v-37.675c0-4.143 3.358-7.5 7.5-7.5s7.5 3.357 7.5 7.5v37.675z" fill="#00d1b3"/></g><g><path d="m329.542 497v-37.675c0-4.143 3.358-7.5 7.5-7.5s7.5 3.357 7.5 7.5v37.675z" fill="#00d1b3"/></g></g><path d="m121.59 90.028c-.692-4.156-1.07-8.419-1.07-12.772 0-42.667 34.589-77.256 77.257-77.256s77.257 34.589 77.257 77.257c0 1.274-.035 2.54-.096 3.798l-29.468 37.326h-119.437z" fill="#a47cd1"/><path d="m208.991 89.741c-12.784-7.396-27.626-11.63-43.457-11.63-48.001 0-86.914 38.913-86.914 86.914 0 3.092.164 6.146.479 9.155.002-.004.004-.008.005-.012h86.908z" fill="#b08bd7"/><path d="m338.884 174.167h86.908c.002.004.004.009.006.013.315-3.009.479-6.063.479-9.155 0-48.002-38.913-86.914-86.914-86.914-15.831 0-30.673 4.235-43.457 11.63z" fill="#b08bd7"/><path d="m338.884 174.167c.314-3.005.478-6.054.478-9.142 0-48.002-38.913-86.914-86.914-86.914s-86.914 38.913-86.914 86.914c0 3.088.164 6.137.478 9.142z" fill="#bc9bdd"/><g><path d="m130.354 242.886c0-24.335 4.439-47.538 12.468-68.719h-24.457c-8.108 13.901-14.102 29.182-17.578 45.397-1.118-.096-2.264-.158-3.461-.158-23.635 0-42.794 19.16-42.794 42.794 0 23.635 19.159 42.794 42.794 42.794 3.237 0 6.173-.372 8.848-1.052 18.046 51.013 62.016 89.772 116.084 100.438-54.476-29.544-91.904-90.757-91.904-161.494z" fill="#ffbe9c"/></g><g fill="#ff9db0"><ellipse cx="161.836" cy="270.764" rx="33.434" ry="26.625"/><ellipse cx="343.059" cy="270.764" rx="33.434" ry="26.625"/></g><g><g><path d="m181.321 252.634c-4.142 0-7.5-3.357-7.5-7.5v-13.668c0-4.143 3.358-7.5 7.5-7.5s7.5 3.357 7.5 7.5v13.668c0 4.143-3.357 7.5-7.5 7.5z" fill="#423e4f"/></g><g><path d="m323.574 252.634c-4.142 0-7.5-3.357-7.5-7.5v-13.668c0-4.143 3.358-7.5 7.5-7.5s7.5 3.357 7.5 7.5v13.668c0 4.143-3.358 7.5-7.5 7.5z" fill="#423e4f"/></g><g><path d="m252.448 260.77c-9.354 0-18.249-4.052-24.406-11.115-2.721-3.123-2.396-7.86.726-10.582 3.123-2.721 7.86-2.396 10.582.727 3.307 3.795 8.081 5.971 13.098 5.971s9.791-2.176 13.098-5.971c2.721-3.122 7.459-3.447 10.582-.727 3.123 2.722 3.448 7.46.726 10.582-6.157 7.063-15.053 11.115-24.406 11.115z" fill="#423e4f"/></g></g></g></svg>