<svg id="Capa_1" enable-background="new 0 0 497 497" height="512" viewBox="0 0 497 497" width="512" xmlns="http://www.w3.org/2000/svg"><g><path d="m331.107 389.432c23.895 17.131 55.389 50.528 55.389 107.568h-266.972c0-57.04 31.494-90.437 55.389-107.568z" fill="#ff889e"/><g><g><path d="m164.592 496.999v-39.322c0-4.143 3.358-7.5 7.5-7.5s7.5 3.357 7.5 7.5v39.322z" fill="#ff748f"/></g><g><path d="m326.428 496.999v-39.322c0-4.143 3.358-7.5 7.5-7.5s7.5 3.357 7.5 7.5v39.322z" fill="#ff748f"/></g></g><path d="m331.107 389.432-32.269 57.523c-9.29 16.557-26.844 26.844-45.827 26.844s-36.537-10.287-45.827-26.844l-32.269-57.523c14.615-10.478 26.401-14.877 26.401-14.877h103.391c-.001 0 11.785 4.399 26.4 14.877z" fill="#d8d8d8"/><path d="m201.314 364.49 36.594 65.234c6.615 11.792 23.589 11.792 30.204 0l36.594-65.234z" fill="#ffbd86"/><path d="m456.811 300.47c-7.356-12.665-15.87-32.891-15.189-57.921h-377.223c.681 25.031-7.834 45.256-15.189 57.921-5.497 9.465-2.554 21.6 6.685 27.468 19.164 12.172 54.693 28.575 106.992 28.575h180.246c52.299 0 87.828-16.403 106.992-28.575 9.24-5.868 12.183-18.004 6.686-27.468z" fill="#5c586f"/><circle cx="96.423" cy="66.464" fill="#d8d8d8" r="66.464"/><path d="m117.724 102.719c-37.967 0-68.745-30.778-68.745-68.744 0-5.459.656-10.762 1.858-15.854-12.846 12.119-20.878 29.288-20.878 48.343 0 36.707 29.757 66.464 66.464 66.464 28.805 0 53.323-18.328 62.547-43.956-11.489 8.63-25.769 13.747-41.246 13.747z" fill="#cacac8"/><path d="m47.472 214.366c0-113.334 92.204-205.539 205.539-205.539s205.539 92.204 205.539 205.539z" fill="#ff889e"/><g fill="#ffbd86"><circle cx="84.713" cy="234.496" r="45.734"/><circle cx="421.307" cy="234.496" r="45.734"/></g><path d="m85.191 201.734c6.452-87.045 79.124-155.66 167.819-155.66s161.367 68.615 167.819 155.66l-167.819 51.957z" fill="#5c586f"/><path d="m220.626 49.187c-73.43 14.313-129.789 76.373-135.435 152.547l36.443 11.283c3.473-67.832 41.143-130.29 98.992-163.83z" fill="#4f4c5f"/><path d="m421.302 214.366c0 92.943-75.349 168.292-168.292 168.292s-168.292-75.349-168.292-168.292c0-4.248.161-8.465.473-12.632.886-.131 48.495-17.171 96.315-87.075 0 0 69.239 87.075 239.323 87.075.312 4.167.473 8.384.473 12.632z" fill="#fed2a4"/><path d="m121.366 223.28c0-16.257 1.98-32.275 5.745-47.741-24.078 19.959-41.389 26.116-41.92 26.194-.312 4.167-.473 8.384-.473 12.632 0 75.966 50.34 140.167 119.477 161.092-50.277-34.608-82.829-89.887-82.829-152.177z" fill="#ffbd86"/><g fill="#ff9db0"><ellipse cx="155.501" cy="260.291" rx="35.979" ry="28.652"/><ellipse cx="350.52" cy="260.291" rx="35.979" ry="28.652"/></g><g><g><path d="m176.469 240.209c-4.142 0-7.5-3.357-7.5-7.5v-14.708c0-4.143 3.358-7.5 7.5-7.5s7.5 3.357 7.5 7.5v14.708c0 4.143-3.358 7.5-7.5 7.5z" fill="#423e4f"/></g><g><path d="m329.551 240.209c-4.142 0-7.5-3.357-7.5-7.5v-14.708c0-4.143 3.358-7.5 7.5-7.5s7.5 3.357 7.5 7.5v14.708c0 4.143-3.358 7.5-7.5 7.5z" fill="#423e4f"/></g><g><path d="m253.01 248.965c-9.901 0-19.317-4.288-25.833-11.766-2.721-3.123-2.396-7.86.727-10.582 3.123-2.721 7.859-2.396 10.582.727 3.667 4.208 8.961 6.621 14.525 6.621s10.858-2.413 14.526-6.621c2.721-3.123 7.458-3.447 10.582-.727 3.123 2.722 3.448 7.459.726 10.582-6.518 7.478-15.934 11.766-25.835 11.766z" fill="#423e4f"/></g></g></g></svg>