<svg id="Capa_1" enable-background="new 0 0 497 497" height="512" viewBox="0 0 497 497" width="512" xmlns="http://www.w3.org/2000/svg"><g><path d="m311.61 497h-126.22l-45.458-51.193c13.968-43.189 42.044-61.896 42.044-61.896h133.05s28.076 18.707 42.044 61.896z" fill="#ffb5ec"/><circle cx="248.5" cy="395.108" fill="#da9d81" r="42.532"/><path d="m205.303 383.911h-23.328s-28.076 18.707-42.044 61.895l19.562 22.03c.311-35.502 18.557-66.563 45.81-83.925z" fill="#ffa2e7"/><path d="m334.516 51.509v-8.501c0-23.753-19.255-43.008-43.008-43.008-23.753 0-43.008 19.255-43.008 43.008 0-23.753-19.255-43.008-43.008-43.008-23.753 0-43.008 19.255-43.008 43.008v8.501c0 15.401-8.289 29.651-21.75 37.134-46.144 25.652-76.165 70.165-76.165 131.494 0 101.582 82.349 174.971 183.931 174.971s183.931-73.389 183.931-174.971c0-61.329-30.021-105.842-76.165-131.494-13.461-7.483-21.75-21.733-21.75-37.134z" fill="#50e1cd"/><path d="m166.762 330.508c-31.351-16.885-52.696-50.028-52.696-88.07 0-32.825 15.9-62.005 40.401-80.244l60.84-19.743h66.386l60.84 19.743c24.501 18.239 40.401 47.42 40.401 80.244 0 38.041-21.345 71.185-52.696 88.07l-63.479 11.917h-36.518z" fill="#da9d81"/><g><g><path d="m174.166 249.219c-4.142 0-7.5-3.357-7.5-7.5v-14.284c0-4.143 3.358-7.5 7.5-7.5s7.5 3.357 7.5 7.5v14.284c0 4.142-3.358 7.5-7.5 7.5z" fill="#423e4f"/></g><g><path d="m322.834 249.219c-4.142 0-7.5-3.357-7.5-7.5v-14.284c0-4.143 3.358-7.5 7.5-7.5s7.5 3.357 7.5 7.5v14.284c0 4.142-3.358 7.5-7.5 7.5z" fill="#423e4f"/></g><g><path d="m248.5 257.722c-9.678 0-18.883-4.191-25.252-11.5-2.721-3.123-2.396-7.86.727-10.582 3.122-2.721 7.86-2.396 10.582.727 3.52 4.039 8.602 6.355 13.944 6.355s10.424-2.316 13.944-6.355c2.721-3.121 7.459-3.446 10.582-.727 3.123 2.722 3.448 7.459.727 10.582-6.371 7.308-15.576 11.5-25.254 11.5z" fill="#423e4f"/></g></g><g fill="#fff"><path d="m215.307 142.451-14.058 41.705c-6.352 18.856-33.034 18.856-39.385 0l-7.397-21.963c16.646-12.405 37.275-19.743 59.586-19.743h1.254z"/><path d="m342.533 162.194-7.397 21.963c-6.352 18.856-33.034 18.856-39.385 0l-14.058-41.705h1.254c22.311-.001 42.94 7.337 59.586 19.742z"/><path d="m230.241 342.425h-16.188c-17.094 0-33.203-4.311-47.29-11.917l10.035-29.788c6.352-18.856 33.034-18.856 39.385 0z"/><path d="m330.238 330.508c-14.088 7.606-30.196 11.917-47.29 11.917h-16.188l14.058-41.705c6.352-18.856 33.034-18.856 39.385 0z"/></g><path d="m273.499 69.198c-10.041 0-19.033 4.577-25 11.755-5.966-7.178-14.958-11.755-24.999-11.755-17.92 0-32.499 14.579-32.499 32.499 0 4.143 3.358 7.5 7.5 7.5s7.5-3.357 7.5-7.5c0-9.649 7.85-17.499 17.499-17.499s17.5 7.849 17.5 17.499c0 4.143 3.358 7.5 7.5 7.5s7.5-3.357 7.5-7.5c0-9.649 7.85-17.499 17.5-17.499 9.649 0 17.499 7.85 17.499 17.499 0 4.143 3.358 7.5 7.5 7.5s7.5-3.357 7.5-7.5c-.001-17.92-14.58-32.499-32.5-32.499z" fill="#00d1b3"/><path d="m205.492 59.617c4.142 0 7.5-3.357 7.5-7.5v-14.285c0-4.143-3.358-7.5-7.5-7.5s-7.5 3.357-7.5 7.5v14.284c0 4.143 3.358 7.501 7.5 7.501z" fill="#423e4f"/><path d="m223.501 94.087c-4.142 0-7.5 3.357-7.5 7.5v8.311c0 4.143 3.358 7.5 7.5 7.5s7.5-3.357 7.5-7.5v-8.311c0-4.142-3.358-7.5-7.5-7.5z" fill="#00d1b3"/><path d="m273.499 94.087c-4.142 0-7.5 3.357-7.5 7.5v8.311c0 4.143 3.358 7.5 7.5 7.5s7.5-3.357 7.5-7.5v-8.311c0-4.142-3.358-7.5-7.5-7.5z" fill="#00d1b3"/><path d="m291.508 59.617c4.142 0 7.5-3.357 7.5-7.5v-14.285c0-4.143-3.358-7.5-7.5-7.5s-7.5 3.357-7.5 7.5v14.284c0 4.143 3.358 7.501 7.5 7.501z" fill="#423e4f"/><path d="m185.39 445.807v51.193h-53.174c0-19.892 3.086-36.886 7.716-51.193z" fill="#da9d81"/><path d="m364.785 497h-53.175v-51.193h45.458c4.63 14.306 7.717 31.301 7.717 51.193z" fill="#da9d81"/><path d="m137.715 232.791c0-25.378 6.223-49.391 17.306-70.777l-.555.18c-24.501 18.239-40.401 47.42-40.401 80.244 0 36.647 19.814 68.742 49.295 86.142-16.764-26.836-25.645-59.951-25.645-95.789z" fill="#c7856a"/><path d="m159.482 468.755c0-7.899.892-15.581 2.571-22.949h-22.122c-4.63 14.307-7.716 31.301-7.716 51.193h31.197c-2.553-8.954-3.93-18.432-3.93-28.244z" fill="#c7856a"/></g></svg>