<svg id="Capa_1" enable-background="new 0 0 497 497" height="512" viewBox="0 0 497 497" width="512" xmlns="http://www.w3.org/2000/svg"><g><path d="m291.61 497h-117.527l58.764-97.38z" fill="#5c586f"/><path d="m361.788 497h-70.178c-23.305-30.348-51.69-71.049-58.764-97.379-7.073 26.331-35.458 67.031-58.764 97.379h-70.178c0-88.909 58.409-128.709 58.409-128.709h141.065c.001 0 58.41 39.799 58.41 128.709z" fill="#ff889e"/><path d="m414.151 112.554c2.524.593 5.014 1.349 7.452 2.29 26.761 10.324 47.496-9.737 59.915-27.71 5.567-8.057 1.19-18.986-8.308-21.373-12.576-3.161-23.558-13.183-30.908-21.582-4.529-5.177-8.336-10.917-11.851-16.829-15.401-25.908-49.153-35.382-76.194-19.799-9.7 5.59-17.135 13.755-21.892 23.188z" fill="#e27858"/><path d="m404.26 212.016h35.418c0-30.895-6.81-60.221-19.004-86.572-32.818-70.937-104.676-120.269-187.827-120.269s-155.01 49.332-187.827 120.269c-12.194 26.351-19.004 55.677-19.004 86.572h35.418z" fill="#e7886e"/><path d="m90.832 201.784c0-80.613 41.21-151.591 103.704-193.049-66.491 12.505-121.864 56.936-149.516 116.71-12.194 26.351-19.004 55.677-19.004 86.572h35.418 29.636c-.148-3.394-.238-6.803-.238-10.233z" fill="#e27858"/><g><circle cx="404.264" cy="222.134" fill="#ffbe9c" r="48.403"/></g><path d="m142.696 455.902c0-35.233 16.005-66.726 41.138-87.612h-21.52s-58.409 39.8-58.409 128.709h43.17c-3.083-12.749-4.379-26.605-4.379-41.097z" fill="#ff748f"/><path d="m380.823 125.444h-56.385l-24.246-36.916-24.246 36.916h-86.197l-24.246-36.916-24.246 36.916h-56.387c-14.896 25.41-23.437 54.989-23.437 86.572 0 94.667 76.746 171.413 171.413 171.413s171.414-76.745 171.414-171.413c0-31.583-8.541-61.162-23.437-86.572z" fill="#ffd3bc"/><path d="m275.702 389.602c-4.68-2.581-6.95-8.059-5.466-13.194l.005-.017c2.5-8.652-5.514-16.666-14.166-14.166l-.017.005c-5.135 1.484-10.612-.786-13.193-5.466-4.35-7.888-15.686-7.888-20.036 0-2.581 4.68-8.059 6.95-13.193 5.466l-.017-.005c-8.652-2.5-16.666 5.514-14.166 14.166l.005.017c1.484 5.135-.786 10.612-5.466 13.193-7.888 4.35-7.888 15.686 0 20.036 4.68 2.581 6.95 8.059 5.466 13.193l-.005.017c-2.5 8.652 5.514 16.666 14.166 14.166l.017-.005c5.135-1.484 10.612.786 13.193 5.466 4.35 7.888 15.686 7.888 20.036 0 2.581-4.68 8.059-6.95 13.193-5.466l.017.005c8.652 2.5 16.666-5.514 14.166-14.166l-.005-.017c-1.484-5.135.786-10.612 5.466-13.193 7.888-4.348 7.888-15.685 0-20.035z" fill="#fff"/><path d="m160.775 367.573c-43.141-42.051-69.943-100.786-69.943-165.789 0-26.751 4.552-52.436 12.899-76.339h-18.861c-8.72 14.874-15.241 31.186-19.167 48.483-1.409-.125-2.833-.196-4.274-.196-26.732 0-48.403 21.67-48.403 48.403 0 26.732 21.671 48.403 48.403 48.403 3.392 0 6.7-.357 9.895-1.021 15.468 43.438 47.961 78.8 89.451 98.056z" fill="#ffbe9c"/><g fill="#ff9db0"><ellipse cx="126.393" cy="239.357" rx="39.279" ry="31.28"/><ellipse cx="339.3" cy="239.357" rx="39.279" ry="31.28"/></g><g><g><path d="m149.285 216.746c-4.142 0-7.5-3.357-7.5-7.5v-16.058c0-4.143 3.358-7.5 7.5-7.5s7.5 3.357 7.5 7.5v16.058c0 4.142-3.358 7.5-7.5 7.5z" fill="#423e4f"/></g><g><path d="m316.408 216.746c-4.142 0-7.5-3.357-7.5-7.5v-16.058c0-4.143 3.358-7.5 7.5-7.5s7.5 3.357 7.5 7.5v16.058c0 4.142-3.358 7.5-7.5 7.5z" fill="#423e4f"/></g><g><path d="m232.847 226.304c-10.61 0-20.701-4.596-27.685-12.609-2.721-3.123-2.396-7.86.727-10.582s7.86-2.395 10.582.727c4.134 4.744 10.103 7.465 16.376 7.465s12.242-2.721 16.377-7.465c2.721-3.123 7.458-3.447 10.582-.727 3.123 2.722 3.448 7.459.726 10.582-6.985 8.013-17.076 12.609-27.685 12.609z" fill="#423e4f"/></g></g></g></svg>