<svg id="Capa_1" enable-background="new 0 0 497 497" height="512" viewBox="0 0 497 497" width="512" xmlns="http://www.w3.org/2000/svg"><g><path d="m423.119 127.352-174.619 45.195-174.619-45.195c6.563-11.967 14.324-23.194 23.116-33.506 10.594-12.435 14.947-29.202 11.071-45.064-.185-.789-.399-1.568-.623-2.347-1.899-6.427 3.019-12.814 9.718-12.639 14.158.37 33.847 3.837 40.595 19.348 0 0 1.032-14.47-3.077-28.589-1.957-6.758 3.749-13.321 10.721-12.435 16.037 2.016 38.755 7.975 45.376 25.337 0 0 6.699-19.874 24.149-32.951 8.014-6.008 19.134-6.008 27.148 0 17.449 13.077 24.149 32.951 24.149 32.951 6.621-17.362 29.339-23.321 45.376-25.337 6.972-.886 12.678 5.677 10.721 12.435-4.109 14.119-3.077 28.589-3.077 28.589 6.748-15.512 26.437-18.978 40.595-19.348 6.699-.175 11.617 6.212 9.718 12.639-.224.779-.438 1.558-.623 2.347-3.875 15.862.477 32.63 11.071 45.064 8.791 10.312 16.551 21.539 23.114 33.506z" fill="#fccb88"/><path d="m187.985 496.998-63.558.002c0-34.698 9.243-61.62 20.233-81.369h50.797z" fill="#5c586f"/><path d="m309.015 496.998 63.558.002c0-34.698-9.243-61.62-20.233-81.369h-50.797z" fill="#5c586f"/><path d="m275.628 373.151 19.004 61.925-19.004 61.924h-54.256l-19.895-61.924 19.895-61.925z" fill="#d8d8d8"/><path d="m447.521 222.778h-398.042c0-34.558 8.851-67.08 24.402-95.426h149.568l25.051 20.119 32.515-20.119h142.105c15.55 28.345 24.401 60.868 24.401 95.426z" fill="#5c586f"/><path d="m370.478 333.519c35.247 59.944-61.463 102.375-61.463 163.479h-33.388v-163.479z" fill="#64d1e1"/><path d="m126.522 333.519c-35.248 59.944 61.463 102.375 61.463 163.479h33.388v-163.479z" fill="#64d1e1"/><g><circle cx="413.445" cy="232.511" fill="#ffcabd" r="46.575"/></g><path d="m200.454 24.225c-9.935-7.487-24.062-10.723-35.053-12.104-6.972-.886-12.678 5.677-10.721 12.435 4.109 14.119 3.077 28.589 3.077 28.589-6.748-15.512-26.437-18.978-40.595-19.348-6.699-.175-11.617 6.212-9.718 12.639.224.779.438 1.558.623 2.347 3.875 15.862-.477 32.629-11.071 45.064-8.793 10.312-16.553 21.539-23.116 33.506l56.74 14.685c11.101-49.669 36.392-91.551 69.834-117.813z" fill="#fbc072"/><path d="m124.427 198.811c0-25.142 3.524-49.217 9.954-71.459h-60.5c-15.55 28.345-24.402 60.868-24.402 95.426h76.037c-.711-7.863-1.089-15.858-1.089-23.967z" fill="#4f4c5f"/><path d="m396.506 149.894c-13.546-27.45-42.186-44.155-72.7-41.717-20.961 1.675-44.315 8.181-64.44 25.051-6.301 5.282-15.432 5.282-21.733 0-20.121-16.867-43.471-23.374-64.429-25.05-30.105-2.408-58.658 13.717-72.208 40.708-11.189 22.288-17.475 47.462-17.441 74.11.118 90.173 73.581 164.082 163.752 164.719 91.644.648 166.137-73.447 166.137-164.94.001-26.166-6.094-50.905-16.938-72.881z" fill="#ffdcce"/><path d="m216.921 384.657c-54.562-32.134-92.494-103.259-92.494-185.846 0-30.395 5.145-59.232 14.359-85.15-16.07 6.706-29.643 18.998-37.79 35.225-5.868 11.688-10.371 24.176-13.338 37.248-1.326-.124-2.688-.197-4.103-.197-25.723 0-46.575 20.852-46.575 46.575s20.852 46.575 46.575 46.575c3.458 0 6.639-.388 9.57-1.104 19.377 54.121 66.349 95.428 123.796 106.674z" fill="#ffcabd"/><g><g><g><ellipse cx="149.811" cy="249.861" fill="#ff9db0" rx="36.414" ry="28.999"/></g><g><ellipse cx="347.189" cy="249.861" fill="#ff9db0" rx="36.414" ry="28.999"/></g></g></g><g><g><path d="m171.033 229.447c-4.142 0-7.5-3.357-7.5-7.5v-14.887c0-4.143 3.358-7.5 7.5-7.5s7.5 3.357 7.5 7.5v14.887c0 4.142-3.358 7.5-7.5 7.5z" fill="#423e4f"/></g><g><path d="m325.967 229.447c-4.142 0-7.5-3.357-7.5-7.5v-14.887c0-4.143 3.358-7.5 7.5-7.5s7.5 3.357 7.5 7.5v14.887c0 4.142-3.358 7.5-7.5 7.5z" fill="#423e4f"/></g><g><path d="m248.5 238.308c-9.994 0-19.5-4.329-26.078-11.877-2.722-3.123-2.396-7.86.726-10.582 3.122-2.721 7.86-2.396 10.582.727 3.729 4.278 9.112 6.732 14.77 6.732s11.041-2.454 14.77-6.732c2.721-3.123 7.459-3.448 10.582-.727 3.123 2.722 3.448 7.459.727 10.582-6.579 7.548-16.084 11.877-26.079 11.877z" fill="#423e4f"/></g></g></g></svg>