<svg id="Capa_1" enable-background="new 0 0 497 497" height="512" viewBox="0 0 497 497" width="512" xmlns="http://www.w3.org/2000/svg"><g><path d="m248.5 0 47.067 211.045-47.067 220.918h-109.877c-101.451-40.525-99.13-72.052-99.13-222.945-.001-115.257 93.761-209.018 209.007-209.018z" fill="#50e1cd"/><path d="m358.377 431.963h-109.877v-363.695-68.268c115.246 0 209.008 93.761 209.008 209.018 0 150.893 2.321 182.42-99.131 222.945z" fill="#5c586f"/><path d="m105.166 169.185c0-54.42 15.045-104.058 39.78-141.676-62.947 36.056-105.453 103.908-105.453 181.509 0 150.894-2.321 182.42 99.13 222.945h109.877l10.676-50.108c-85.285-1.822-154.01-96.331-154.01-212.67z" fill="#00d1b3"/><path d="m153.961 497h-35.76c0-89.855 59.024-130.063 59.024-130.063h142.549s59.024 40.208 59.024 130.063h-35.76l-94.538-32.516z" fill="#ffd8d2"/><path d="m177.225 366.937h40.228v84.604h-40.228z" fill="#5c586f"/><path d="m279.547 366.937h40.228v84.604h-40.228z" fill="#5c586f" transform="matrix(-1 0 0 -1 599.321 818.477)"/><path d="m344.859 483.399c0 4.704-.634 9.265-1.82 13.601h-189.078c-1.186-4.336-1.82-8.897-1.82-13.601 0-28.367 22.384-51.058 50.751-51.426 11.739-.153 22.589 3.63 31.312 10.113 8.539 6.35 20.053 6.35 28.592 0 8.723-6.483 19.572-10.267 31.312-10.113 28.366.368 50.751 23.06 50.751 51.426z" fill="#50e1cd"/><path d="m421.082 194.057c-1.748-20.383-15.634-37.768-35.092-44.088-54.547-17.719-90.065-17.499-137.491-81.696-47.426 64.196-82.944 63.976-137.491 81.696-19.45 6.318-33.34 23.693-35.089 44.068-.522 6.073-.729 12.236-.606 18.473 1.851 93.569 78.708 169.252 172.295 169.723 96.077.484 174.113-77.254 174.113-173.219 0-5.039-.216-10.028-.639-14.957z" fill="#ffd8d2"/><path d="m105.166 169.185c0-5.773.175-11.489.507-17.146-16.62 7.544-28.169 23.539-29.754 41.998-.522 6.073-.729 12.236-.606 18.473 1.851 93.57 78.708 169.252 172.295 169.724 4.08.021 8.124-.111 12.134-.368-85.546-1.416-154.576-96.085-154.576-212.681z" fill="#ffcabd"/><g><g><g><ellipse cx="142.13" cy="236.596" fill="#ff9db0" rx="39.248" ry="31.256"/></g><g><ellipse cx="354.87" cy="236.596" fill="#ff9db0" rx="39.248" ry="31.256"/></g></g></g><g><g><path d="m165.004 214.008c-4.142 0-7.5-3.357-7.5-7.5v-16.044c0-4.143 3.358-7.5 7.5-7.5s7.5 3.357 7.5 7.5v16.044c0 4.142-3.358 7.5-7.5 7.5z" fill="#423e4f"/></g><g><path d="m331.996 214.008c-4.142 0-7.5-3.357-7.5-7.5v-16.044c0-4.143 3.358-7.5 7.5-7.5s7.5 3.357 7.5 7.5v16.044c0 4.142-3.358 7.5-7.5 7.5z" fill="#423e4f"/></g><g><path d="m248.5 223.56c-10.604 0-20.689-4.594-27.667-12.603-2.721-3.122-2.396-7.86.727-10.581s7.86-2.396 10.582.728c4.129 4.738 10.092 7.456 16.359 7.456s12.23-2.718 16.359-7.456c2.721-3.124 7.458-3.449 10.582-.728 3.123 2.721 3.448 7.459.727 10.581-6.98 8.009-17.065 12.603-27.669 12.603z" fill="#423e4f"/></g></g><path d="m188.378 479.065c0-18.009 7.377-34.434 19.503-46.91-1.643-.136-3.305-.204-4.988-.182-28.367.368-50.751 23.06-50.751 51.426 0 4.704.634 9.265 1.82 13.6h36.935c-1.639-5.727-2.519-11.736-2.519-17.934z" fill="#00d1b3"/></g></svg>